# xmcd
#
# Track frame offsets: 
#        150
#        13428
#        23685
#        37268
#        50465
#        64160
#        78700
#        92443
#        104515
#        116340
#        130113
#        143085
#        155718
#        167910
#        180610
#        193255
#
# Disc length: 2741 seconds
#
# Revision: 2
# Processed by: cddbd v1.5.2PL0 Copyright (c) Steve Scherf et al.
# Submitted via: ExactAudioCopyFreeDBPlugin 1.0
#
DISCID=e20ab310
DTITLE=Various Artist - Blues Legends: Low Down St Louis Blues
DYEAR=1992
DGENRE=Blues
TTITLE0=Bessie Smith - Baby Won't You Please Come Home
TTITLE1=Robert Johnson - Milkcow's Calf Blues
TTITLE2=Blind Lemon Jefferson - Match Box Blues
TTITLE3=Mississippi John Hurt - Ain't No Telling
TTITLE4=Blind Willie Johnson - Lord, I Just Can't Keep From Crying
TTITLE5=Lonnis Johnson - Low Down St. Louis Blues
TTITLE6=Leroy Carr - Stormy Night Blues
TTITLE7=Josh White - I Believe I'll Make A Change
TTITLE8=Leadbelly - C.C.Rider
TTITLE9=Blind Boy Fuller - Truckin' My Blues Away
TTITLE10=Big Bill Broonzy - Spreadin' Snakes Blues
TTITLE11=Memphis Minnie - Nothin' In Ramblin'
TTITLE12=Tampa Red - You Can't Get That Stuff No More
TTITLE13=Charlie Patton - High Sheriff Blues
TTITLE14=Bukka White - Fixing To Die Blues
TTITLE15=Josh White - I Believe I'll Make A Change
EXTD=
EXTT0=
EXTT1=
EXTT2=
EXTT3=
EXTT4=
EXTT5=
EXTT6=
EXTT7=
EXTT8=
EXTT9=
EXTT10=
EXTT11=
EXTT12=
EXTT13=
EXTT14=
EXTT15=
PLAYORDER=
